<svg width="50" height="83" viewBox="0 0 50 83" fill="none" xmlns="http://www.w3.org/2000/svg">
<path d="M5.88636 67.3636L9.34091 77.1591H9.47727L12.9318 67.3636H14.4091L10.1364 79H8.68182L4.40909 67.3636H5.88636ZM16.0398 79V70.2727H17.3807V79H16.0398ZM16.7216 68.8182C16.4602 68.8182 16.2348 68.7292 16.0455 68.5511C15.8598 68.3731 15.767 68.1591 15.767 67.9091C15.767 67.6591 15.8598 67.4451 16.0455 67.267C16.2348 67.089 16.4602 67 16.7216 67C16.983 67 17.2064 67.089 17.392 67.267C17.5814 67.4451 17.6761 67.6591 17.6761 67.9091C17.6761 68.1591 17.5814 68.3731 17.392 68.5511C17.2064 68.7292 16.983 68.8182 16.7216 68.8182ZM20.0185 79V67.3636H21.3594V71.6591H21.473C21.5715 71.5076 21.7079 71.3144 21.8821 71.0795C22.0601 70.8409 22.3139 70.6288 22.6435 70.4432C22.9768 70.2538 23.4276 70.1591 23.9957 70.1591C24.7306 70.1591 25.3783 70.3428 25.9389 70.7102C26.4995 71.0777 26.937 71.5985 27.2514 72.2727C27.5658 72.947 27.723 73.7424 27.723 74.6591C27.723 75.5833 27.5658 76.3845 27.2514 77.0625C26.937 77.7367 26.5014 78.2595 25.9446 78.6307C25.3878 78.9981 24.7457 79.1818 24.0185 79.1818C23.4579 79.1818 23.009 79.089 22.6719 78.9034C22.3348 78.714 22.0753 78.5 21.8935 78.2614C21.7116 78.0189 21.5715 77.8182 21.473 77.6591H21.3139V79H20.0185ZM21.3366 74.6364C21.3366 75.2955 21.4332 75.8769 21.6264 76.3807C21.8196 76.8807 22.1018 77.2727 22.473 77.5568C22.8442 77.8371 23.2988 77.9773 23.8366 77.9773C24.3973 77.9773 24.8651 77.8295 25.2401 77.5341C25.6188 77.2348 25.9029 76.8333 26.0923 76.3295C26.2855 75.822 26.3821 75.2576 26.3821 74.6364C26.3821 74.0227 26.2874 73.4697 26.098 72.9773C25.9124 72.4811 25.6302 72.089 25.2514 71.8011C24.8764 71.5095 24.4048 71.3636 23.8366 71.3636C23.2912 71.3636 22.8329 71.5019 22.4616 71.7784C22.0904 72.0511 21.8101 72.4337 21.6207 72.9261C21.4313 73.4148 21.3366 73.9848 21.3366 74.6364ZM33.4332 79.1818C32.5923 79.1818 31.867 78.9962 31.2571 78.625C30.651 78.25 30.1832 77.7273 29.8537 77.0568C29.5279 76.3826 29.3651 75.5985 29.3651 74.7045C29.3651 73.8106 29.5279 73.0227 29.8537 72.3409C30.1832 71.6553 30.6416 71.1212 31.2287 70.7386C31.8196 70.3523 32.509 70.1591 33.2969 70.1591C33.7514 70.1591 34.2003 70.2348 34.6435 70.3864C35.0866 70.5379 35.4901 70.7841 35.8537 71.125C36.2173 71.4621 36.5071 71.9091 36.723 72.4659C36.9389 73.0227 37.0469 73.7083 37.0469 74.5227V75.0909H30.3196V73.9318H35.6832C35.6832 73.4394 35.5848 73 35.3878 72.6136C35.1946 72.2273 34.9181 71.9223 34.5582 71.6989C34.2022 71.4754 33.7817 71.3636 33.2969 71.3636C32.7628 71.3636 32.3007 71.4962 31.9105 71.7614C31.5241 72.0227 31.2268 72.3636 31.0185 72.7841C30.8101 73.2045 30.706 73.6553 30.706 74.1364V74.9091C30.706 75.5682 30.8196 76.1269 31.0469 76.5852C31.2779 77.0398 31.598 77.3864 32.0071 77.625C32.4162 77.8598 32.8916 77.9773 33.4332 77.9773C33.7855 77.9773 34.1037 77.928 34.3878 77.8295C34.6757 77.7273 34.9238 77.5758 35.1321 77.375C35.3404 77.1705 35.5014 76.9167 35.6151 76.6136L36.9105 76.9773C36.7741 77.4167 36.545 77.803 36.223 78.1364C35.901 78.4659 35.5033 78.7235 35.0298 78.9091C34.5563 79.0909 34.0241 79.1818 33.4332 79.1818ZM39.0866 79V70.2727H40.3821V71.5909H40.473C40.6321 71.1591 40.92 70.8087 41.3366 70.5398C41.7533 70.2708 42.223 70.1364 42.7457 70.1364C42.8442 70.1364 42.9673 70.1383 43.1151 70.142C43.2628 70.1458 43.3745 70.1515 43.4503 70.1591V71.5227C43.4048 71.5114 43.3007 71.4943 43.1378 71.4716C42.9787 71.4451 42.8101 71.4318 42.6321 71.4318C42.2079 71.4318 41.8291 71.5208 41.4957 71.6989C41.1662 71.8731 40.9048 72.1155 40.7116 72.4261C40.5223 72.733 40.4276 73.0833 40.4276 73.4773V79H39.0866Z" fill="#B0B8C1"/>
<circle cx="25" cy="25" r="25" fill="white"/>
<path fill-rule="evenodd" clip-rule="evenodd" d="M30.8454 13.2843C26.9126 12.4052 22.8343 12.4052 18.9016 13.2843L18.4778 13.379C16.2218 13.8833 14.4412 15.6137 13.8726 17.8543C12.8758 21.7824 12.8758 25.8973 13.8726 29.8254C14.4158 31.9657 16.0648 33.6404 18.1777 34.2256L18.7586 37.6953C18.7962 37.92 18.9531 38.1064 19.168 38.1819C19.383 38.2573 19.622 38.2098 19.7917 38.0579L23.2051 35.0038C25.7607 35.1598 28.3327 34.957 30.8454 34.3954L31.2692 34.3006C33.5251 33.7964 35.3057 32.066 35.8743 29.8254C36.8712 25.8973 36.8712 21.7824 35.8743 17.8543C35.3057 15.6137 33.5252 13.8833 31.2692 13.379L30.8454 13.2843ZM19.9559 17.7523C19.7237 17.7183 19.4869 17.7649 19.2849 17.8843H19.2677C18.7987 18.1592 18.3762 18.5067 18.0159 18.9138C17.7164 19.26 17.554 19.6103 17.5114 19.9474C17.4859 20.1484 17.5032 20.3494 17.563 20.5413L17.5844 20.5544C17.9215 21.5454 18.362 22.4986 18.9002 23.396C19.5933 24.6568 20.4464 25.8228 21.4382 26.8651L21.4677 26.9078L21.5145 26.9422L21.544 26.9767L21.5785 27.0062C22.6246 28.0009 23.7934 28.858 25.0566 29.5566C26.5004 30.3424 27.3764 30.714 27.9023 30.8682V30.8764C28.0565 30.9232 28.1968 30.9445 28.3379 30.9445C28.786 30.9117 29.2102 30.7298 29.5429 30.4277C29.9481 30.0673 30.2917 29.6431 30.5601 29.1718V29.1636C30.8119 28.6895 30.7266 28.2408 30.3632 27.9373C29.6354 27.3011 28.8484 26.7361 28.013 26.2499C27.4536 25.9464 26.8851 26.1301 26.6546 26.4377L26.1632 27.0571C25.9114 27.3647 25.4536 27.322 25.4536 27.322L25.4405 27.3302C22.0272 26.4582 21.1166 23.0023 21.1166 23.0023C21.1166 23.0023 21.074 22.5322 21.3898 22.2927L22.005 21.7972C22.2995 21.5577 22.5046 20.99 22.1888 20.4298C21.706 19.5932 21.1422 18.806 20.5055 18.0796C20.3663 17.9083 20.1711 17.7918 19.9543 17.7506L19.9559 17.7523ZM25.7241 16.25C25.3789 16.25 25.0991 16.5298 25.0991 16.875C25.0991 17.2202 25.3789 17.5 25.7241 17.5C27.3047 17.5 28.6181 18.0166 29.6556 19.0059C30.1897 19.5477 30.6055 20.1889 30.8785 20.8907C31.1525 21.595 31.2771 22.3461 31.2451 23.0984C31.2304 23.4433 31.4981 23.7348 31.843 23.7494C32.1879 23.7641 32.4793 23.4964 32.494 23.1515C32.5333 22.226 32.3799 21.3026 32.0434 20.4375C31.7069 19.5725 31.1947 18.7842 30.5384 18.1206L30.5258 18.1086C29.2384 16.8773 27.6064 16.25 25.7241 16.25ZM25.6815 18.3054C25.3363 18.3054 25.0565 18.5852 25.0565 18.9304C25.0565 19.2756 25.3363 19.5554 25.6815 19.5554H25.7019C26.8425 19.6358 27.6724 20.016 28.2542 20.64C28.8498 21.2827 29.1584 22.081 29.1356 23.0687C29.1276 23.4138 29.4008 23.7 29.7459 23.708C30.091 23.716 30.3772 23.4427 30.3852 23.0976C30.4152 21.8008 29.9982 20.6825 29.1703 19.7896L29.1693 19.7884C28.3235 18.8808 27.1632 18.4006 25.7652 18.3068L25.7443 18.3054H25.6815ZM25.6579 20.3983C25.3132 20.3802 25.019 20.6449 25.0009 20.9896C24.9827 21.3343 25.2475 21.6285 25.5922 21.6466C26.1155 21.6742 26.4491 21.8311 26.6588 22.0429C26.8695 22.2556 27.0271 22.5962 27.0558 23.1303C27.0743 23.4749 27.3688 23.7393 27.7134 23.7208C28.0581 23.7023 28.3225 23.4078 28.304 23.0631C28.2636 22.3131 28.0289 21.65 27.547 21.1633C27.0641 20.6758 26.4048 20.4377 25.6579 20.3983Z" fill="#323B48"/>
</svg>
