<svg width="71" height="83" viewBox="0 0 71 83" fill="none" xmlns="http://www.w3.org/2000/svg">
<path d="M0.772727 68.6136V67.3636H9.5V68.6136H5.84091V79H4.43182V68.6136H0.772727ZM13.8864 79.1818C13.0455 79.1818 12.3201 78.9962 11.7102 78.625C11.1042 78.25 10.6364 77.7273 10.3068 77.0568C9.98106 76.3826 9.81818 75.5985 9.81818 74.7045C9.81818 73.8106 9.98106 73.0227 10.3068 72.3409C10.6364 71.6553 11.0947 71.1212 11.6818 70.7386C12.2727 70.3523 12.9621 70.1591 13.75 70.1591C14.2045 70.1591 14.6534 70.2348 15.0966 70.3864C15.5398 70.5379 15.9432 70.7841 16.3068 71.125C16.6705 71.4621 16.9602 71.9091 17.1761 72.4659C17.392 73.0227 17.5 73.7083 17.5 74.5227V75.0909H10.7727V73.9318H16.1364C16.1364 73.4394 16.0379 73 15.8409 72.6136C15.6477 72.2273 15.3712 71.9223 15.0114 71.6989C14.6553 71.4754 14.2348 71.3636 13.75 71.3636C13.2159 71.3636 12.7538 71.4962 12.3636 71.7614C11.9773 72.0227 11.6799 72.3636 11.4716 72.7841C11.2633 73.2045 11.1591 73.6553 11.1591 74.1364V74.9091C11.1591 75.5682 11.2727 76.1269 11.5 76.5852C11.7311 77.0398 12.0511 77.3864 12.4602 77.625C12.8693 77.8598 13.3447 77.9773 13.8864 77.9773C14.2386 77.9773 14.5568 77.928 14.8409 77.8295C15.1288 77.7273 15.3769 77.5758 15.5852 77.375C15.7936 77.1705 15.9545 76.9167 16.0682 76.6136L17.3636 76.9773C17.2273 77.4167 16.9981 77.803 16.6761 78.1364C16.3542 78.4659 15.9564 78.7235 15.483 78.9091C15.0095 79.0909 14.4773 79.1818 13.8864 79.1818ZM20.8807 67.3636V79H19.5398V67.3636H20.8807ZM26.9957 79.1818C26.1548 79.1818 25.4295 78.9962 24.8196 78.625C24.2135 78.25 23.7457 77.7273 23.4162 77.0568C23.0904 76.3826 22.9276 75.5985 22.9276 74.7045C22.9276 73.8106 23.0904 73.0227 23.4162 72.3409C23.7457 71.6553 24.2041 71.1212 24.7912 70.7386C25.3821 70.3523 26.0715 70.1591 26.8594 70.1591C27.3139 70.1591 27.7628 70.2348 28.206 70.3864C28.6491 70.5379 29.0526 70.7841 29.4162 71.125C29.7798 71.4621 30.0696 71.9091 30.2855 72.4659C30.5014 73.0227 30.6094 73.7083 30.6094 74.5227V75.0909H23.8821V73.9318H29.2457C29.2457 73.4394 29.1473 73 28.9503 72.6136C28.7571 72.2273 28.4806 71.9223 28.1207 71.6989C27.7647 71.4754 27.3442 71.3636 26.8594 71.3636C26.3253 71.3636 25.8632 71.4962 25.473 71.7614C25.0866 72.0227 24.7893 72.3636 24.581 72.7841C24.3726 73.2045 24.2685 73.6553 24.2685 74.1364V74.9091C24.2685 75.5682 24.3821 76.1269 24.6094 76.5852C24.8404 77.0398 25.1605 77.3864 25.5696 77.625C25.9787 77.8598 26.4541 77.9773 26.9957 77.9773C27.348 77.9773 27.6662 77.928 27.9503 77.8295C28.2382 77.7273 28.4863 77.5758 28.6946 77.375C28.9029 77.1705 29.0639 76.9167 29.1776 76.6136L30.473 76.9773C30.3366 77.4167 30.1075 77.803 29.7855 78.1364C29.4635 78.4659 29.0658 78.7235 28.5923 78.9091C28.1188 79.0909 27.5866 79.1818 26.9957 79.1818ZM36.1719 82.4545C35.5241 82.4545 34.9673 82.3712 34.5014 82.2045C34.0355 82.0417 33.6473 81.8258 33.3366 81.5568C33.0298 81.2917 32.7855 81.0076 32.6037 80.7045L33.6719 79.9545C33.7931 80.1136 33.9465 80.2955 34.1321 80.5C34.3177 80.7083 34.5715 80.8883 34.8935 81.0398C35.2192 81.1951 35.6454 81.2727 36.1719 81.2727C36.8764 81.2727 37.4579 81.1023 37.9162 80.7614C38.3745 80.4205 38.6037 79.8864 38.6037 79.1591V77.3864H38.4901C38.3916 77.5455 38.2514 77.7424 38.0696 77.9773C37.8916 78.2083 37.634 78.4148 37.2969 78.5966C36.9635 78.7746 36.5128 78.8636 35.9446 78.8636C35.2401 78.8636 34.6075 78.697 34.0469 78.3636C33.4901 78.0303 33.0488 77.5455 32.723 76.9091C32.401 76.2727 32.2401 75.5 32.2401 74.5909C32.2401 73.697 32.3973 72.9186 32.7116 72.2557C33.026 71.589 33.4635 71.0739 34.0241 70.7102C34.5848 70.3428 35.2325 70.1591 35.9673 70.1591C36.5355 70.1591 36.9863 70.2538 37.3196 70.4432C37.6567 70.6288 37.9143 70.8409 38.0923 71.0795C38.2741 71.3144 38.4143 71.5076 38.5128 71.6591H38.6491V70.2727H39.9446V79.25C39.9446 80 39.7741 80.6098 39.4332 81.0795C39.0961 81.553 38.6416 81.8996 38.0696 82.1193C37.5014 82.3428 36.8688 82.4545 36.1719 82.4545ZM36.1264 77.6591C36.6643 77.6591 37.1188 77.536 37.4901 77.2898C37.8613 77.0436 38.1435 76.6894 38.3366 76.2273C38.5298 75.7652 38.6264 75.2121 38.6264 74.5682C38.6264 73.9394 38.5317 73.3845 38.3423 72.9034C38.1529 72.4223 37.8726 72.0455 37.5014 71.7727C37.1302 71.5 36.6719 71.3636 36.1264 71.3636C35.5582 71.3636 35.0848 71.5076 34.706 71.7955C34.331 72.0833 34.0488 72.4697 33.8594 72.9545C33.6738 73.4394 33.581 73.9773 33.581 74.5682C33.581 75.1742 33.6757 75.7102 33.8651 76.1761C34.0582 76.6383 34.3423 77.0019 34.7173 77.267C35.0961 77.5284 35.5658 77.6591 36.1264 77.6591ZM42.3991 79V70.2727H43.6946V71.5909H43.7855C43.9446 71.1591 44.2325 70.8087 44.6491 70.5398C45.0658 70.2708 45.5355 70.1364 46.0582 70.1364C46.1567 70.1364 46.2798 70.1383 46.4276 70.142C46.5753 70.1458 46.687 70.1515 46.7628 70.1591V71.5227C46.7173 71.5114 46.6132 71.4943 46.4503 71.4716C46.2912 71.4451 46.1226 71.4318 45.9446 71.4318C45.5204 71.4318 45.1416 71.5208 44.8082 71.6989C44.4787 71.8731 44.2173 72.1155 44.0241 72.4261C43.8348 72.733 43.7401 73.0833 43.7401 73.4773V79H42.3991ZM50.9205 79.2045C50.3674 79.2045 49.8655 79.1004 49.4148 78.892C48.964 78.6799 48.6061 78.375 48.3409 77.9773C48.0758 77.5758 47.9432 77.0909 47.9432 76.5227C47.9432 76.0227 48.0417 75.6174 48.2386 75.3068C48.4356 74.9924 48.6989 74.7462 49.0284 74.5682C49.358 74.3902 49.7216 74.2576 50.1193 74.1705C50.5208 74.0795 50.9242 74.0076 51.3295 73.9545C51.8598 73.8864 52.2898 73.8352 52.6193 73.8011C52.9527 73.7633 53.1951 73.7008 53.3466 73.6136C53.5019 73.5265 53.5795 73.375 53.5795 73.1591V73.1136C53.5795 72.553 53.4261 72.1174 53.1193 71.8068C52.8163 71.4962 52.3561 71.3409 51.7386 71.3409C51.0985 71.3409 50.5966 71.4811 50.233 71.7614C49.8693 72.0417 49.6136 72.3409 49.4659 72.6591L48.1932 72.2045C48.4205 71.6742 48.7235 71.2614 49.1023 70.9659C49.4848 70.6667 49.9015 70.4583 50.3523 70.3409C50.8068 70.2197 51.2538 70.1591 51.6932 70.1591C51.9735 70.1591 52.2955 70.1932 52.6591 70.2614C53.0265 70.3258 53.3807 70.4602 53.7216 70.6648C54.0663 70.8693 54.3523 71.178 54.5795 71.5909C54.8068 72.0038 54.9205 72.5568 54.9205 73.25V79H53.5795V77.8182H53.5114C53.4205 78.0076 53.2689 78.2102 53.0568 78.4261C52.8447 78.642 52.5625 78.8258 52.2102 78.9773C51.858 79.1288 51.428 79.2045 50.9205 79.2045ZM51.125 78C51.6553 78 52.1023 77.8958 52.4659 77.6875C52.8333 77.4792 53.1098 77.2102 53.2955 76.8807C53.4848 76.5511 53.5795 76.2045 53.5795 75.8409V74.6136C53.5227 74.6818 53.3977 74.7443 53.2045 74.8011C53.0152 74.8542 52.7955 74.9015 52.5455 74.9432C52.2992 74.9811 52.0587 75.0152 51.8239 75.0455C51.5928 75.072 51.4053 75.0947 51.2614 75.1136C50.9129 75.1591 50.5871 75.233 50.2841 75.3352C49.9848 75.4337 49.7424 75.5833 49.5568 75.7841C49.375 75.9811 49.2841 76.25 49.2841 76.5909C49.2841 77.0568 49.4564 77.4091 49.8011 77.6477C50.1496 77.8826 50.5909 78 51.125 78ZM57.3679 79V70.2727H58.6634V71.6364H58.777C58.9588 71.1705 59.2524 70.8087 59.6577 70.5511C60.063 70.2898 60.5497 70.1591 61.1179 70.1591C61.6937 70.1591 62.1728 70.2898 62.5554 70.5511C62.9418 70.8087 63.2429 71.1705 63.4588 71.6364H63.5497C63.7732 71.1856 64.1084 70.8277 64.5554 70.5625C65.0024 70.2936 65.5384 70.1591 66.1634 70.1591C66.9437 70.1591 67.5819 70.4034 68.0781 70.892C68.5743 71.3769 68.8224 72.1326 68.8224 73.1591V79H67.4815V73.1591C67.4815 72.5152 67.3054 72.0549 66.9531 71.7784C66.6009 71.5019 66.1861 71.3636 65.7088 71.3636C65.0952 71.3636 64.6198 71.5492 64.2827 71.9205C63.9455 72.2879 63.777 72.7538 63.777 73.3182V79H62.4134V73.0227C62.4134 72.5265 62.2524 72.1269 61.9304 71.8239C61.6084 71.517 61.1937 71.3636 60.6861 71.3636C60.3376 71.3636 60.0118 71.4564 59.7088 71.642C59.4096 71.8277 59.1671 72.0852 58.9815 72.4148C58.7997 72.7405 58.7088 73.1174 58.7088 73.5455V79H57.3679Z" fill="#B0B8C1"/>
<circle cx="36" cy="25" r="25" fill="white"/>
<path d="M32.8924 19.994L32.8927 19.9947C33.0506 20.3466 33.3129 20.9854 33.5229 21.4968L33.5264 21.5052C33.6091 21.7067 33.6839 21.8887 33.7422 22.0288C33.7714 22.0989 33.7959 22.1572 33.8149 22.2015C33.8244 22.2237 33.8321 22.2413 33.838 22.2545C33.842 22.2635 33.8443 22.2685 33.8454 22.2707C33.846 22.2721 33.8461 22.2723 33.8457 22.2716L33.3989 22.4959M32.8924 19.994L33.8722 23.2564C34.0698 22.8515 33.9592 22.4975 33.8457 22.2714L33.3989 22.4959M32.8924 19.994C32.7516 19.6813 32.5742 19.447 32.3331 19.3072C32.1016 19.173 31.8743 19.1672 31.7617 19.1644C31.7584 19.1643 31.7552 19.1642 31.7521 19.1641M32.8924 19.994L31.7521 19.1641M33.3989 22.4959C33.4766 22.6505 33.5244 22.829 33.4228 23.0372L32.4366 20.1994C32.5912 20.544 32.8517 21.1784 33.0639 21.6951L33.064 21.6954C33.2291 22.0974 33.3649 22.4282 33.3989 22.4959ZM36.9689 27.9679C36.906 27.9366 36.8264 27.9022 36.7496 27.8691L36.7399 27.8649L36.7387 27.8644C36.3179 27.6829 35.51 27.3343 34.5742 26.5012L34.5733 26.5004C33.7258 25.7494 33.1375 24.8121 32.9528 24.4968C32.9657 24.4834 32.98 24.469 32.9983 24.4508L32.9986 24.4505C33.1035 24.346 33.2185 24.207 33.3141 24.0914L33.3236 24.0799C33.383 24.0082 33.4376 23.9423 33.489 23.8833L33.4891 23.8832C33.6704 23.6749 33.7527 23.5041 33.835 23.3333L33.839 23.3249L33.839 23.3249L33.8721 23.2565L36.7462 28.4155M36.9689 27.9679L36.7462 28.4155M36.9689 27.9679C36.9689 27.9679 36.9689 27.9679 36.9689 27.9679L36.7462 28.4155M36.9689 27.9679C37.0033 27.985 37.03 27.9963 37.0499 28.0036M36.7462 28.4155C37.0571 28.5702 37.2423 28.5464 37.4216 28.3382C37.601 28.1299 38.1987 27.4338 38.408 27.1245M37.0499 28.0036C37.0475 28.0064 37.0451 28.0092 37.0428 28.0119L37.0428 28.0119C37.0274 28.0298 37.0195 28.0357 37.0196 28.0358C37.0196 28.0358 37.0206 28.035 37.0228 28.0336C37.0272 28.0309 37.0347 28.027 37.0448 28.0234C37.0476 28.0224 37.0503 28.0216 37.0531 28.0208C37.0531 28.0208 37.0531 28.0208 37.0531 28.0208C37.0606 28.0186 37.068 28.0172 37.0749 28.0164C37.0859 28.0151 37.0921 28.0158 37.0922 28.0158C37.0922 28.0158 37.0887 28.0154 37.081 28.0134C37.0733 28.0115 37.0631 28.0084 37.0499 28.0036ZM37.0499 28.0036C37.2461 27.7758 37.8044 27.1234 37.9923 26.8466M37.9923 26.8466C37.9915 26.8477 37.9908 26.8488 37.9901 26.85L38.408 27.1245M37.9923 26.8466C37.9928 26.8458 37.9933 26.8451 37.9938 26.8443L38.408 27.1245M37.9923 26.8466C38.1475 26.6118 38.3656 26.43 38.6677 26.3944C38.9168 26.3651 39.1484 26.4515 39.2812 26.501L39.2821 26.5014L39.2822 26.5014C39.453 26.5651 39.9346 26.7931 40.3792 27.0071C40.8381 27.2281 41.3003 27.4551 41.458 27.5335L41.458 27.5336C41.5157 27.5623 41.57 27.5883 41.6236 27.614L41.6369 27.6204C41.734 27.667 41.8449 27.7201 41.9385 27.7773C42.0359 27.8368 42.1701 27.9325 42.263 28.089L41.833 28.3441L39.1073 26.9698C38.8204 26.8628 38.6112 26.8152 38.408 27.1245M31.7521 19.1641C31.5649 19.158 31.3496 19.158 31.1448 19.158H31.1394C30.8158 19.158 30.339 19.2765 29.942 19.7046M31.7521 19.1641L30.1432 26.2118L30.1058 26.1567C30.0972 26.1441 30.0935 26.139 30.093 26.1382L30.0867 26.1298L30.0867 26.1298L30.0866 26.1297C29.9922 26.0033 29.6551 25.5523 29.3411 24.9317C29.0304 24.3178 28.7206 23.4963 28.7206 22.6328C28.7206 20.9995 29.5391 20.1308 29.8889 19.7611L29.8889 19.7611C29.9098 19.739 29.9269 19.7209 29.942 19.7046M29.942 19.7046L30.3086 20.0446L29.942 19.7046ZM30.0327 35.478C29.9211 35.4176 29.7909 35.4019 29.6682 35.4339L24.1289 36.8807L25.6082 31.5111C25.6438 31.3818 25.626 31.2437 25.5589 31.1277C24.5488 29.3837 24.0176 27.4061 24.0183 25.3934V25.3932C24.0183 19.0678 29.1957 13.917 35.5507 13.917C38.6404 13.917 41.5322 15.114 43.7098 17.2815C45.8869 19.4484 47.0833 22.3313 47.0833 25.3991C47.0833 31.7244 41.9059 36.8753 35.5508 36.8753H35.5448C33.6139 36.8753 31.7172 36.3905 30.0327 35.478ZM35.6307 30.9869L35.8137 30.5216L35.6306 30.9869C35.6306 30.9869 35.6307 30.9869 35.6307 30.9869ZM30.4938 25.8394L30.0931 26.1383L30.0933 26.1386L30.4938 25.8394Z" fill="#323B48" stroke="#323B48" stroke-linejoin="round"/>
</svg>
