<svg width="78" height="83" viewBox="0 0 78 83" fill="none" xmlns="http://www.w3.org/2000/svg">
<path d="M3.52273 79L0.340909 67.3636H1.77273L4.20455 76.8409H4.31818L6.79545 67.3636H8.38636L10.8636 76.8409H10.9773L13.4091 67.3636H14.8409L11.6591 79H10.2045L7.63636 69.7273H7.54545L4.97727 79H3.52273ZM17.7557 73.75V79H16.4148V67.3636H17.7557V71.6364H17.8693C18.0739 71.1856 18.3807 70.8277 18.7898 70.5625C19.2027 70.2936 19.7519 70.1591 20.4375 70.1591C21.0322 70.1591 21.553 70.2784 22 70.517C22.447 70.7519 22.7936 71.1136 23.0398 71.6023C23.2898 72.0871 23.4148 72.7045 23.4148 73.4545V79H22.0739V73.5455C22.0739 72.8523 21.8939 72.3163 21.5341 71.9375C21.178 71.5549 20.6837 71.3636 20.0511 71.3636C19.6117 71.3636 19.2178 71.4564 18.8693 71.642C18.5246 71.8277 18.2519 72.0985 18.0511 72.4545C17.8542 72.8106 17.7557 73.2424 17.7557 73.75ZM28.4361 79.2045C27.883 79.2045 27.3812 79.1004 26.9304 78.892C26.4796 78.6799 26.1217 78.375 25.8565 77.9773C25.5914 77.5758 25.4588 77.0909 25.4588 76.5227C25.4588 76.0227 25.5573 75.6174 25.7543 75.3068C25.9512 74.9924 26.2145 74.7462 26.544 74.5682C26.8736 74.3902 27.2372 74.2576 27.6349 74.1705C28.0365 74.0795 28.4399 74.0076 28.8452 73.9545C29.3755 73.8864 29.8054 73.8352 30.1349 73.8011C30.4683 73.7633 30.7107 73.7008 30.8622 73.6136C31.0175 73.5265 31.0952 73.375 31.0952 73.1591V73.1136C31.0952 72.553 30.9418 72.1174 30.6349 71.8068C30.3319 71.4962 29.8717 71.3409 29.2543 71.3409C28.6141 71.3409 28.1122 71.4811 27.7486 71.7614C27.3849 72.0417 27.1293 72.3409 26.9815 72.6591L25.7088 72.2045C25.9361 71.6742 26.2391 71.2614 26.6179 70.9659C27.0005 70.6667 27.4171 70.4583 27.8679 70.3409C28.3224 70.2197 28.7694 70.1591 29.2088 70.1591C29.4891 70.1591 29.8111 70.1932 30.1747 70.2614C30.5421 70.3258 30.8963 70.4602 31.2372 70.6648C31.5819 70.8693 31.8679 71.178 32.0952 71.5909C32.3224 72.0038 32.4361 72.5568 32.4361 73.25V79H31.0952V77.8182H31.027C30.9361 78.0076 30.7846 78.2102 30.5724 78.4261C30.3603 78.642 30.0781 78.8258 29.7259 78.9773C29.3736 79.1288 28.9437 79.2045 28.4361 79.2045ZM28.6406 78C29.1709 78 29.6179 77.8958 29.9815 77.6875C30.349 77.4792 30.6255 77.2102 30.8111 76.8807C31.0005 76.5511 31.0952 76.2045 31.0952 75.8409V74.6136C31.0384 74.6818 30.9134 74.7443 30.7202 74.8011C30.5308 74.8542 30.3111 74.9015 30.0611 74.9432C29.8149 74.9811 29.5743 75.0152 29.3395 75.0455C29.1084 75.072 28.9209 75.0947 28.777 75.1136C28.4285 75.1591 28.1027 75.233 27.7997 75.3352C27.5005 75.4337 27.258 75.5833 27.0724 75.7841C26.8906 75.9811 26.7997 76.25 26.7997 76.5909C26.7997 77.0568 26.9721 77.4091 27.3168 77.6477C27.6652 77.8826 28.1065 78 28.6406 78ZM38.679 70.2727V71.4091H34.1562V70.2727H38.679ZM35.4744 68.1818H36.8153V76.5C36.8153 76.8788 36.8703 77.1629 36.9801 77.3523C37.0938 77.5379 37.2377 77.6629 37.4119 77.7273C37.59 77.7879 37.7775 77.8182 37.9744 77.8182C38.1222 77.8182 38.2434 77.8106 38.3381 77.7955C38.4328 77.7765 38.5085 77.7614 38.5653 77.75L38.8381 78.9545C38.7472 78.9886 38.6203 79.0227 38.4574 79.0568C38.2945 79.0947 38.0881 79.1136 37.8381 79.1136C37.4593 79.1136 37.0881 79.0322 36.7244 78.8693C36.3646 78.7064 36.0653 78.4583 35.8267 78.125C35.5919 77.7917 35.4744 77.3712 35.4744 76.8636V68.1818ZM46.7216 72.2273L45.517 72.5682C45.4413 72.3674 45.3295 72.1723 45.1818 71.983C45.0379 71.7898 44.8409 71.6307 44.5909 71.5057C44.3409 71.3807 44.0208 71.3182 43.6307 71.3182C43.0966 71.3182 42.6515 71.4413 42.2955 71.6875C41.9432 71.9299 41.767 72.2386 41.767 72.6136C41.767 72.947 41.8883 73.2102 42.1307 73.4034C42.3731 73.5966 42.7519 73.7576 43.267 73.8864L44.5625 74.2045C45.3428 74.3939 45.9242 74.6837 46.3068 75.0739C46.6894 75.4602 46.8807 75.9583 46.8807 76.5682C46.8807 77.0682 46.7367 77.5152 46.4489 77.9091C46.1648 78.303 45.767 78.6136 45.2557 78.8409C44.7443 79.0682 44.1496 79.1818 43.4716 79.1818C42.5814 79.1818 41.8447 78.9886 41.2614 78.6023C40.678 78.2159 40.3087 77.6515 40.1534 76.9091L41.4261 76.5909C41.5473 77.0606 41.7765 77.4129 42.1136 77.6477C42.4545 77.8826 42.8996 78 43.4489 78C44.0739 78 44.5701 77.8674 44.9375 77.6023C45.3087 77.3333 45.4943 77.0114 45.4943 76.6364C45.4943 76.3333 45.3883 76.0795 45.1761 75.875C44.964 75.6667 44.6383 75.5114 44.1989 75.4091L42.7443 75.0682C41.9451 74.8788 41.358 74.5852 40.983 74.1875C40.6117 73.786 40.4261 73.2841 40.4261 72.6818C40.4261 72.1894 40.5644 71.7538 40.8409 71.375C41.1212 70.9962 41.5019 70.6989 41.983 70.483C42.4678 70.267 43.017 70.1591 43.6307 70.1591C44.4943 70.1591 45.1723 70.3485 45.6648 70.7273C46.161 71.1061 46.5133 71.6061 46.7216 72.2273ZM49.5582 79H48.081L52.3537 67.3636H53.8082L58.081 79H56.6037L53.1264 69.2045H53.0355L49.5582 79ZM50.1037 74.4545H56.0582V75.7045H50.1037V74.4545ZM59.7116 82.2727V70.2727H61.0071V71.6591H61.1662C61.2647 71.5076 61.401 71.3144 61.5753 71.0795C61.7533 70.8409 62.0071 70.6288 62.3366 70.4432C62.67 70.2538 63.1207 70.1591 63.6889 70.1591C64.4238 70.1591 65.0715 70.3428 65.6321 70.7102C66.1927 71.0777 66.6302 71.5985 66.9446 72.2727C67.259 72.947 67.4162 73.7424 67.4162 74.6591C67.4162 75.5833 67.259 76.3845 66.9446 77.0625C66.6302 77.7367 66.1946 78.2595 65.6378 78.6307C65.081 78.9981 64.4389 79.1818 63.7116 79.1818C63.151 79.1818 62.7022 79.089 62.3651 78.9034C62.0279 78.714 61.7685 78.5 61.5866 78.2614C61.4048 78.0189 61.2647 77.8182 61.1662 77.6591H61.0526V82.2727H59.7116ZM61.0298 74.6364C61.0298 75.2955 61.1264 75.8769 61.3196 76.3807C61.5128 76.8807 61.795 77.2727 62.1662 77.5568C62.5374 77.8371 62.992 77.9773 63.5298 77.9773C64.0904 77.9773 64.5582 77.8295 64.9332 77.5341C65.312 77.2348 65.5961 76.8333 65.7855 76.3295C65.9787 75.822 66.0753 75.2576 66.0753 74.6364C66.0753 74.0227 65.9806 73.4697 65.7912 72.9773C65.6056 72.4811 65.3234 72.089 64.9446 71.8011C64.5696 71.5095 64.098 71.3636 63.5298 71.3636C62.9844 71.3636 62.526 71.5019 62.1548 71.7784C61.7836 72.0511 61.5033 72.4337 61.3139 72.9261C61.1245 73.4148 61.0298 73.9848 61.0298 74.6364ZM69.4616 82.2727V70.2727H70.7571V71.6591H70.9162C71.0147 71.5076 71.151 71.3144 71.3253 71.0795C71.5033 70.8409 71.7571 70.6288 72.0866 70.4432C72.42 70.2538 72.8707 70.1591 73.4389 70.1591C74.1738 70.1591 74.8215 70.3428 75.3821 70.7102C75.9427 71.0777 76.3802 71.5985 76.6946 72.2727C77.009 72.947 77.1662 73.7424 77.1662 74.6591C77.1662 75.5833 77.009 76.3845 76.6946 77.0625C76.3802 77.7367 75.9446 78.2595 75.3878 78.6307C74.831 78.9981 74.1889 79.1818 73.4616 79.1818C72.901 79.1818 72.4522 79.089 72.1151 78.9034C71.7779 78.714 71.5185 78.5 71.3366 78.2614C71.1548 78.0189 71.0147 77.8182 70.9162 77.6591H70.8026V82.2727H69.4616ZM70.7798 74.6364C70.7798 75.2955 70.8764 75.8769 71.0696 76.3807C71.2628 76.8807 71.545 77.2727 71.9162 77.5568C72.2874 77.8371 72.742 77.9773 73.2798 77.9773C73.8404 77.9773 74.3082 77.8295 74.6832 77.5341C75.062 77.2348 75.3461 76.8333 75.5355 76.3295C75.7287 75.822 75.8253 75.2576 75.8253 74.6364C75.8253 74.0227 75.7306 73.4697 75.5412 72.9773C75.3556 72.4811 75.0734 72.089 74.6946 71.8011C74.3196 71.5095 73.848 71.3636 73.2798 71.3636C72.7344 71.3636 72.276 71.5019 71.9048 71.7784C71.5336 72.0511 71.2533 72.4337 71.0639 72.9261C70.8745 73.4148 70.7798 73.9848 70.7798 74.6364Z" fill="#B0B8C1"/>
<circle cx="39" cy="25" r="25" fill="white"/>
<path fill-rule="evenodd" clip-rule="evenodd" d="M47.1039 34.9125L47.1048 34.9104L47.1265 34.8579L50.875 16.589V16.5297C50.875 16.0745 50.701 15.6771 50.3224 15.4388C49.991 15.2301 49.6101 15.2153 49.3429 15.2349C49.0604 15.2556 48.794 15.3238 48.6096 15.3805C48.5147 15.4097 48.4353 15.4378 48.3785 15.4591C48.35 15.4698 48.3269 15.4788 48.3101 15.4856L48.2936 15.4923L27.3938 23.4177L27.3881 23.4197C27.3768 23.4237 27.3619 23.429 27.3439 23.4358C27.3079 23.4493 27.259 23.4687 27.2015 23.4939C27.0887 23.5433 26.9327 23.6196 26.7746 23.7243C26.506 23.9021 25.9947 24.323 26.081 24.9902C26.1525 25.5429 26.5467 25.894 26.8124 26.0757C26.9548 26.1731 27.0911 26.2434 27.1909 26.2893C27.2414 26.3126 27.2844 26.3304 27.3163 26.343C27.3324 26.3493 27.3458 26.3543 27.3562 26.3581L27.3694 26.3629L27.3779 26.366L31.0345 27.556C31.0221 27.7777 31.0449 28.0038 31.1057 28.2269L32.9373 34.9434C33.1545 35.7397 33.8998 36.2944 34.7518 36.2938C35.5154 36.2933 36.1927 35.8467 36.4804 35.1804L39.34 32.2247L44.2513 35.8645L44.3211 35.894C44.7673 36.0822 45.1842 36.1418 45.5653 36.0915C45.946 36.0412 46.2484 35.887 46.4756 35.7112C46.6992 35.5383 46.8524 35.3432 46.9488 35.1963C46.9977 35.1216 47.0342 35.056 47.0596 35.0066C47.0723 34.9818 47.0823 34.9608 47.0898 34.9445L47.0992 34.9235L47.1026 34.9157L47.1039 34.9125ZM32.9187 27.7649C32.8771 27.6123 32.9425 27.4511 33.0803 27.3665L45.4828 19.7529C45.4828 19.7529 46.2123 19.3248 46.1863 19.7529C46.1863 19.7529 46.3164 19.8285 45.9255 20.181C45.5548 20.5158 37.0859 28.4196 36.229 29.2194C36.1796 29.2655 36.15 29.3185 36.1326 29.3828L34.7503 34.4813L32.9187 27.7649Z" fill="#323B48"/>
</svg>
