<svg width="50" height="83" viewBox="0 0 50 83" fill="none" xmlns="http://www.w3.org/2000/svg">
<path d="M8.77273 70.2727C8.70455 69.697 8.42803 69.25 7.94318 68.9318C7.45833 68.6136 6.86364 68.4545 6.15909 68.4545C5.64394 68.4545 5.19318 68.5379 4.80682 68.7045C4.42424 68.8712 4.125 69.1004 3.90909 69.392C3.69697 69.6837 3.59091 70.0152 3.59091 70.3864C3.59091 70.697 3.66477 70.964 3.8125 71.1875C3.96402 71.4072 4.1572 71.5909 4.39205 71.7386C4.62689 71.8826 4.87311 72.0019 5.13068 72.0966C5.38826 72.1875 5.625 72.2614 5.84091 72.3182L7.02273 72.6364C7.32576 72.7159 7.66288 72.8258 8.03409 72.9659C8.40909 73.1061 8.76705 73.2973 9.10795 73.5398C9.45265 73.7784 9.73674 74.0852 9.96023 74.4602C10.1837 74.8352 10.2955 75.2955 10.2955 75.8409C10.2955 76.4697 10.1307 77.0379 9.80114 77.5455C9.47538 78.053 8.99811 78.4564 8.36932 78.7557C7.74432 79.0549 6.98485 79.2045 6.09091 79.2045C5.25758 79.2045 4.53598 79.0701 3.92614 78.8011C3.32008 78.5322 2.8428 78.1572 2.49432 77.6761C2.14962 77.1951 1.95455 76.6364 1.90909 76H3.36364C3.40152 76.4394 3.54924 76.803 3.80682 77.0909C4.06818 77.375 4.39773 77.5871 4.79545 77.7273C5.19697 77.8636 5.62879 77.9318 6.09091 77.9318C6.62879 77.9318 7.11174 77.8447 7.53977 77.6705C7.9678 77.4924 8.30682 77.2462 8.55682 76.9318C8.80682 76.6136 8.93182 76.2424 8.93182 75.8182C8.93182 75.4318 8.82386 75.1174 8.60795 74.875C8.39205 74.6326 8.10795 74.4356 7.75568 74.2841C7.40341 74.1326 7.02273 74 6.61364 73.8864L5.18182 73.4773C4.27273 73.2159 3.55303 72.8428 3.02273 72.358C2.49242 71.8731 2.22727 71.2386 2.22727 70.4545C2.22727 69.803 2.40341 69.2348 2.75568 68.75C3.11174 68.2614 3.58902 67.8826 4.1875 67.6136C4.78977 67.3409 5.46212 67.2045 6.20455 67.2045C6.95455 67.2045 7.62121 67.339 8.20455 67.608C8.78788 67.8731 9.25 68.2367 9.59091 68.6989C9.93561 69.161 10.1174 69.6856 10.1364 70.2727H8.77273ZM13.6804 75.8182L13.6577 74.1591H13.9304L17.7486 70.2727H19.4077L15.3395 74.3864H15.2259L13.6804 75.8182ZM12.4304 79V67.3636H13.7713V79H12.4304ZM17.9759 79L14.5668 74.6818L15.5213 73.75L19.6804 79H17.9759ZM21.9972 82.2727C21.7699 82.2727 21.5672 82.2538 21.3892 82.2159C21.2112 82.1818 21.0881 82.1477 21.0199 82.1136L21.3608 80.9318C21.6866 81.0152 21.9744 81.0455 22.2244 81.0227C22.4744 81 22.696 80.8883 22.8892 80.6875C23.0862 80.4905 23.2661 80.1705 23.429 79.7273L23.679 79.0455L20.4517 70.2727H21.9062L24.3153 77.2273H24.4062L26.8153 70.2727H28.2699L24.5653 80.2727C24.3987 80.7235 24.1922 81.0966 23.946 81.392C23.6998 81.6913 23.4138 81.9129 23.0881 82.0568C22.7661 82.2008 22.4025 82.2727 21.9972 82.2727ZM30.0398 82.2727V70.2727H31.3352V71.6591H31.4943C31.5928 71.5076 31.7292 71.3144 31.9034 71.0795C32.0814 70.8409 32.3352 70.6288 32.6648 70.4432C32.9981 70.2538 33.4489 70.1591 34.017 70.1591C34.7519 70.1591 35.3996 70.3428 35.9602 70.7102C36.5208 71.0777 36.9583 71.5985 37.2727 72.2727C37.5871 72.947 37.7443 73.7424 37.7443 74.6591C37.7443 75.5833 37.5871 76.3845 37.2727 77.0625C36.9583 77.7367 36.5227 78.2595 35.9659 78.6307C35.4091 78.9981 34.767 79.1818 34.0398 79.1818C33.4792 79.1818 33.0303 79.089 32.6932 78.9034C32.3561 78.714 32.0966 78.5 31.9148 78.2614C31.733 78.0189 31.5928 77.8182 31.4943 77.6591H31.3807V82.2727H30.0398ZM31.358 74.6364C31.358 75.2955 31.4545 75.8769 31.6477 76.3807C31.8409 76.8807 32.1231 77.2727 32.4943 77.5568C32.8655 77.8371 33.3201 77.9773 33.858 77.9773C34.4186 77.9773 34.8864 77.8295 35.2614 77.5341C35.6402 77.2348 35.9242 76.8333 36.1136 76.3295C36.3068 75.822 36.4034 75.2576 36.4034 74.6364C36.4034 74.0227 36.3087 73.4697 36.1193 72.9773C35.9337 72.4811 35.6515 72.089 35.2727 71.8011C34.8977 71.5095 34.4261 71.3636 33.858 71.3636C33.3125 71.3636 32.8542 71.5019 32.483 71.7784C32.1117 72.0511 31.8314 72.4337 31.642 72.9261C31.4527 73.4148 31.358 73.9848 31.358 74.6364ZM43.4489 79.1818C42.608 79.1818 41.8826 78.9962 41.2727 78.625C40.6667 78.25 40.1989 77.7273 39.8693 77.0568C39.5436 76.3826 39.3807 75.5985 39.3807 74.7045C39.3807 73.8106 39.5436 73.0227 39.8693 72.3409C40.1989 71.6553 40.6572 71.1212 41.2443 70.7386C41.8352 70.3523 42.5246 70.1591 43.3125 70.1591C43.767 70.1591 44.2159 70.2348 44.6591 70.3864C45.1023 70.5379 45.5057 70.7841 45.8693 71.125C46.233 71.4621 46.5227 71.9091 46.7386 72.4659C46.9545 73.0227 47.0625 73.7083 47.0625 74.5227V75.0909H40.3352V73.9318H45.6989C45.6989 73.4394 45.6004 73 45.4034 72.6136C45.2102 72.2273 44.9337 71.9223 44.5739 71.6989C44.2178 71.4754 43.7973 71.3636 43.3125 71.3636C42.7784 71.3636 42.3163 71.4962 41.9261 71.7614C41.5398 72.0227 41.2424 72.3636 41.0341 72.7841C40.8258 73.2045 40.7216 73.6553 40.7216 74.1364V74.9091C40.7216 75.5682 40.8352 76.1269 41.0625 76.5852C41.2936 77.0398 41.6136 77.3864 42.0227 77.625C42.4318 77.8598 42.9072 77.9773 43.4489 77.9773C43.8011 77.9773 44.1193 77.928 44.4034 77.8295C44.6913 77.7273 44.9394 77.5758 45.1477 77.375C45.3561 77.1705 45.517 76.9167 45.6307 76.6136L46.9261 76.9773C46.7898 77.4167 46.5606 77.803 46.2386 78.1364C45.9167 78.4659 45.5189 78.7235 45.0455 78.9091C44.572 79.0909 44.0398 79.1818 43.4489 79.1818Z" fill="#B0B8C1"/>
<circle cx="25" cy="25" r="25" fill="white"/>
<path fill-rule="evenodd" clip-rule="evenodd" d="M22.4709 15.6779C23.2814 15.4799 24.1285 15.375 25 15.375C30.868 15.375 35.625 20.132 35.625 26C35.625 26.8715 35.5201 27.7186 35.3221 28.5291C35.9086 29.4171 36.25 30.4812 36.25 31.625C36.25 34.7316 33.7316 37.25 30.625 37.25C29.4812 37.25 28.4171 36.9086 27.5291 36.3221C26.7186 36.5201 25.8715 36.625 25 36.625C19.132 36.625 14.375 31.868 14.375 26C14.375 25.1285 14.4799 24.2814 14.6779 23.4709C14.0914 22.5829 13.75 21.5188 13.75 20.375C13.75 17.2684 16.2684 14.75 19.375 14.75C20.5188 14.75 21.5829 15.0914 22.4709 15.6779ZM26.8802 25.0906C27.347 25.2298 27.7919 25.434 28.2018 25.6972C28.6205 25.9724 28.9695 26.3422 29.2215 26.7753C29.4824 27.255 29.6146 27.7942 29.6051 28.3402C29.6271 29.0446 29.4172 29.7366 29.0078 30.3102C28.577 30.8989 27.9857 31.3509 27.3047 31.6123C26.5721 31.9047 25.7878 32.0456 24.9992 32.0265C24.0712 32.0526 23.1507 31.8537 22.3163 31.4466C21.768 31.1579 21.2971 30.7415 20.9437 30.2324C20.59 29.7431 20.3918 29.1586 20.375 28.555C20.375 28.2837 20.4827 28.0236 20.6746 27.8317C20.8664 27.6399 21.1266 27.5322 21.3978 27.5322C21.6691 27.5322 21.9293 27.6399 22.1211 27.8317C22.3129 28.0236 22.4207 28.2837 22.4207 28.555C22.4417 28.742 22.5131 28.9199 22.6273 29.0695C22.79 29.3033 23.0059 29.4951 23.2573 29.629C23.8017 29.8833 24.3989 30.0039 24.9992 29.9808C25.5184 29.9978 26.0356 29.9101 26.5202 29.7231C26.8453 29.6063 27.13 29.3986 27.3405 29.1247C27.4964 28.9072 27.5736 28.6432 27.5594 28.376C27.5702 28.1696 27.5286 27.9638 27.4387 27.7776C27.3458 27.6251 27.2187 27.4962 27.0674 27.4012C26.8249 27.2483 26.5622 27.1299 26.287 27.0494C26.063 26.9808 25.8185 26.9144 25.5649 26.8489L25.5465 26.8469C25.5351 26.8431 25.5193 26.8393 25.5052 26.8359C25.5002 26.8347 25.4955 26.8336 25.4912 26.8325C25.3255 26.7906 25.1598 26.7487 24.9829 26.7098C24.5308 26.6126 24.2178 26.5339 24.0214 26.4745C24.017 26.4734 24.0131 26.4708 24.0092 26.4682C24.006 26.4659 24.0026 26.4637 23.9989 26.4623C23.5447 26.3522 23.0982 26.2128 22.6621 26.0449C22.0849 25.8134 21.5779 25.4355 21.1912 24.9485C20.7906 24.4228 20.5814 23.7762 20.598 23.1155C20.5981 22.4519 20.815 21.8065 21.2158 21.2775C21.6341 20.7455 22.1928 20.3409 22.8288 20.1094C23.532 19.8567 24.2757 19.7353 25.0228 19.7514C25.6105 19.7449 26.1959 19.8263 26.7595 19.9928C27.2478 20.1352 27.7053 20.3672 28.1087 20.6771C28.4578 20.942 28.7491 21.2755 28.9648 21.657C29.0295 21.7753 29.0702 21.9053 29.0845 22.0394C29.0988 22.1736 29.0864 22.3092 29.048 22.4385C29.0097 22.5678 28.9461 22.6883 28.861 22.793C28.776 22.8976 28.671 22.9844 28.5522 23.0484C28.4335 23.1123 28.3032 23.1521 28.169 23.1655C28.0348 23.1789 27.8992 23.1656 27.7701 23.1264C27.6411 23.0872 27.521 23.0229 27.4169 22.9371C27.3128 22.8513 27.2267 22.7458 27.1636 22.6266C27.0764 22.4894 26.9635 22.3702 26.8311 22.2758C26.6265 22.1266 26.3968 22.015 26.153 21.9464C25.7854 21.8411 25.4041 21.7907 25.0217 21.7971C24.5276 21.7825 24.0348 21.8574 23.5673 22.018C23.2893 22.1127 23.042 22.2805 22.8513 22.5039C22.7151 22.6782 22.6412 22.8932 22.6416 23.1145C22.6249 23.3209 22.683 23.5264 22.8053 23.6934C22.9723 23.8976 23.1894 24.0551 23.4353 24.1506C23.9125 24.3344 24.4037 24.4794 24.9041 24.5843C25.3235 24.6764 25.6631 24.7582 25.9495 24.838C26.2768 24.9188 26.5938 25.0037 26.8802 25.0906Z" fill="#323B48"/>
</svg>
